<mxfile host="app.diagrams.net" modified="2022-05-08T12:14:03.886Z" agent="5.0 (Windows NT 10.0; Win64; x64) AppleWebKit/537.36 (KHTML, like Gecko) Chrome/101.0.4951.54 Safari/537.36" etag="Q9wf3azN4vBuX5stmiVS" version="18.0.2" type="github">
  <diagram id="whWk10D3zKcUONjxA4wh" name="Page-1">
    <mxGraphModel dx="956" dy="526" grid="1" gridSize="10" guides="1" tooltips="1" connect="1" arrows="1" fold="1" page="1" pageScale="1" pageWidth="850" pageHeight="1100" math="0" shadow="0">
      <root>
        <mxCell id="0" />
        <mxCell id="1" parent="0" />
        <mxCell id="pKV5qZKyXIUP5hxfFtXQ-2" value="2,1,1" style="rounded=0;whiteSpace=wrap;html=1;fillColor=#d5e8d4;strokeColor=#82b366;" vertex="1" parent="1">
          <mxGeometry x="380" width="65" height="40" as="geometry" />
        </mxCell>
        <mxCell id="pKV5qZKyXIUP5hxfFtXQ-3" value="" style="endArrow=classic;html=1;rounded=0;exitX=0;exitY=1;exitDx=0;exitDy=0;fillColor=#fff2cc;strokeColor=#d6b656;" edge="1" parent="1" source="pKV5qZKyXIUP5hxfFtXQ-2" target="pKV5qZKyXIUP5hxfFtXQ-4">
          <mxGeometry width="50" height="50" relative="1" as="geometry">
            <mxPoint x="400" y="420" as="sourcePoint" />
            <mxPoint x="300" y="110" as="targetPoint" />
          </mxGeometry>
        </mxCell>
        <mxCell id="pKV5qZKyXIUP5hxfFtXQ-4" value="2,1,0" style="rounded=0;whiteSpace=wrap;html=1;fillColor=#f8cecc;strokeColor=#b85450;" vertex="1" parent="1">
          <mxGeometry x="180" y="50" width="30" height="20" as="geometry" />
        </mxCell>
        <mxCell id="pKV5qZKyXIUP5hxfFtXQ-5" value="" style="endArrow=classic;html=1;rounded=0;exitX=1;exitY=1;exitDx=0;exitDy=0;entryX=0;entryY=0;entryDx=0;entryDy=0;" edge="1" parent="1" source="pKV5qZKyXIUP5hxfFtXQ-2" target="pKV5qZKyXIUP5hxfFtXQ-6">
          <mxGeometry width="50" height="50" relative="1" as="geometry">
            <mxPoint x="400" y="420" as="sourcePoint" />
            <mxPoint x="540" y="110" as="targetPoint" />
          </mxGeometry>
        </mxCell>
        <mxCell id="pKV5qZKyXIUP5hxfFtXQ-6" value="0,0,0" style="rounded=0;whiteSpace=wrap;html=1;fillColor=#d5e8d4;strokeColor=#82b366;" vertex="1" parent="1">
          <mxGeometry x="770" y="70" width="40" height="20" as="geometry" />
        </mxCell>
        <mxCell id="pKV5qZKyXIUP5hxfFtXQ-7" value="" style="endArrow=classic;html=1;rounded=0;exitX=0.25;exitY=1;exitDx=0;exitDy=0;" edge="1" parent="1" source="pKV5qZKyXIUP5hxfFtXQ-2" target="pKV5qZKyXIUP5hxfFtXQ-10">
          <mxGeometry width="50" height="50" relative="1" as="geometry">
            <mxPoint x="400" y="420" as="sourcePoint" />
            <mxPoint x="350" y="100" as="targetPoint" />
          </mxGeometry>
        </mxCell>
        <mxCell id="pKV5qZKyXIUP5hxfFtXQ-8" value="" style="endArrow=classic;html=1;rounded=0;exitX=0.75;exitY=1;exitDx=0;exitDy=0;" edge="1" parent="1" source="pKV5qZKyXIUP5hxfFtXQ-2" target="pKV5qZKyXIUP5hxfFtXQ-9">
          <mxGeometry width="50" height="50" relative="1" as="geometry">
            <mxPoint x="400" y="420" as="sourcePoint" />
            <mxPoint x="490" y="100" as="targetPoint" />
          </mxGeometry>
        </mxCell>
        <mxCell id="pKV5qZKyXIUP5hxfFtXQ-9" value="1,1,1" style="rounded=0;whiteSpace=wrap;html=1;fillColor=#d5e8d4;strokeColor=#82b366;" vertex="1" parent="1">
          <mxGeometry x="620" y="60" width="50" height="20" as="geometry" />
        </mxCell>
        <mxCell id="pKV5qZKyXIUP5hxfFtXQ-10" value="2,0,0" style="rounded=0;whiteSpace=wrap;html=1;fillColor=#d5e8d4;strokeColor=#82b366;" vertex="1" parent="1">
          <mxGeometry x="485" y="60" width="50" height="20" as="geometry" />
        </mxCell>
        <mxCell id="pKV5qZKyXIUP5hxfFtXQ-11" value="" style="endArrow=classic;html=1;rounded=0;exitX=0.175;exitY=0.983;exitDx=0;exitDy=0;exitPerimeter=0;" edge="1" parent="1" source="pKV5qZKyXIUP5hxfFtXQ-9" target="pKV5qZKyXIUP5hxfFtXQ-12">
          <mxGeometry width="50" height="50" relative="1" as="geometry">
            <mxPoint x="400" y="420" as="sourcePoint" />
            <mxPoint x="460" y="210" as="targetPoint" />
          </mxGeometry>
        </mxCell>
        <mxCell id="pKV5qZKyXIUP5hxfFtXQ-12" value="1,1,0" style="rounded=0;whiteSpace=wrap;html=1;fillColor=#d5e8d4;strokeColor=#82b366;" vertex="1" parent="1">
          <mxGeometry x="580" y="90" width="60" height="20" as="geometry" />
        </mxCell>
        <mxCell id="pKV5qZKyXIUP5hxfFtXQ-13" value="" style="endArrow=classic;html=1;rounded=0;exitX=0.5;exitY=1;exitDx=0;exitDy=0;" edge="1" parent="1" source="pKV5qZKyXIUP5hxfFtXQ-9" target="pKV5qZKyXIUP5hxfFtXQ-14">
          <mxGeometry width="50" height="50" relative="1" as="geometry">
            <mxPoint x="400" y="420" as="sourcePoint" />
            <mxPoint x="570" y="190" as="targetPoint" />
          </mxGeometry>
        </mxCell>
        <mxCell id="pKV5qZKyXIUP5hxfFtXQ-14" value="1,0,0" style="rounded=0;whiteSpace=wrap;html=1;fillColor=#f8cecc;strokeColor=#b85450;" vertex="1" parent="1">
          <mxGeometry x="650" y="90" width="40" height="20" as="geometry" />
        </mxCell>
        <mxCell id="pKV5qZKyXIUP5hxfFtXQ-17" value="" style="endArrow=classic;html=1;rounded=0;exitX=0.25;exitY=1;exitDx=0;exitDy=0;" edge="1" parent="1" source="pKV5qZKyXIUP5hxfFtXQ-12" target="pKV5qZKyXIUP5hxfFtXQ-18">
          <mxGeometry width="50" height="50" relative="1" as="geometry">
            <mxPoint x="400" y="420" as="sourcePoint" />
            <mxPoint x="450" y="370" as="targetPoint" />
          </mxGeometry>
        </mxCell>
        <mxCell id="pKV5qZKyXIUP5hxfFtXQ-18" value="1,0,0" style="rounded=0;whiteSpace=wrap;html=1;fillColor=#f8cecc;strokeColor=#b85450;" vertex="1" parent="1">
          <mxGeometry x="560" y="120" width="40" height="20" as="geometry" />
        </mxCell>
        <mxCell id="pKV5qZKyXIUP5hxfFtXQ-19" value="" style="endArrow=classic;html=1;rounded=0;exitX=0.75;exitY=1;exitDx=0;exitDy=0;" edge="1" parent="1" source="pKV5qZKyXIUP5hxfFtXQ-12" target="pKV5qZKyXIUP5hxfFtXQ-20">
          <mxGeometry width="50" height="50" relative="1" as="geometry">
            <mxPoint x="400" y="420" as="sourcePoint" />
            <mxPoint x="560" y="360" as="targetPoint" />
          </mxGeometry>
        </mxCell>
        <mxCell id="pKV5qZKyXIUP5hxfFtXQ-20" value="0,0,0" style="rounded=0;whiteSpace=wrap;html=1;fillColor=#d5e8d4;strokeColor=#82b366;" vertex="1" parent="1">
          <mxGeometry x="610" y="120" width="50" height="20" as="geometry" />
        </mxCell>
        <mxCell id="pKV5qZKyXIUP5hxfFtXQ-25" value="" style="endArrow=classic;html=1;rounded=0;exitX=0.617;exitY=0.967;exitDx=0;exitDy=0;exitPerimeter=0;" edge="1" parent="1" source="pKV5qZKyXIUP5hxfFtXQ-14" target="pKV5qZKyXIUP5hxfFtXQ-26">
          <mxGeometry width="50" height="50" relative="1" as="geometry">
            <mxPoint x="400" y="420" as="sourcePoint" />
            <mxPoint x="660" y="270" as="targetPoint" />
          </mxGeometry>
        </mxCell>
        <mxCell id="pKV5qZKyXIUP5hxfFtXQ-26" value="0,0,0" style="rounded=0;whiteSpace=wrap;html=1;fillColor=#d5e8d4;strokeColor=#82b366;" vertex="1" parent="1">
          <mxGeometry x="670" y="120" width="50" height="20" as="geometry" />
        </mxCell>
        <mxCell id="pKV5qZKyXIUP5hxfFtXQ-27" value="" style="endArrow=classic;html=1;rounded=0;exitX=0.908;exitY=1.017;exitDx=0;exitDy=0;exitPerimeter=0;" edge="1" parent="1" source="pKV5qZKyXIUP5hxfFtXQ-9" target="pKV5qZKyXIUP5hxfFtXQ-28">
          <mxGeometry width="50" height="50" relative="1" as="geometry">
            <mxPoint x="400" y="420" as="sourcePoint" />
            <mxPoint x="630" y="180" as="targetPoint" />
          </mxGeometry>
        </mxCell>
        <mxCell id="pKV5qZKyXIUP5hxfFtXQ-28" value="0,0,0" style="rounded=0;whiteSpace=wrap;html=1;fillColor=#d5e8d4;strokeColor=#82b366;" vertex="1" parent="1">
          <mxGeometry x="695" y="90" width="50" height="20" as="geometry" />
        </mxCell>
        <mxCell id="pKV5qZKyXIUP5hxfFtXQ-29" value="" style="endArrow=classic;html=1;rounded=0;exitX=0.25;exitY=1;exitDx=0;exitDy=0;" edge="1" parent="1" source="pKV5qZKyXIUP5hxfFtXQ-10" target="pKV5qZKyXIUP5hxfFtXQ-30">
          <mxGeometry width="50" height="50" relative="1" as="geometry">
            <mxPoint x="300" y="154" as="sourcePoint" />
            <mxPoint x="450" y="370" as="targetPoint" />
          </mxGeometry>
        </mxCell>
        <mxCell id="pKV5qZKyXIUP5hxfFtXQ-30" value="0,0,0" style="rounded=0;whiteSpace=wrap;html=1;fillColor=#d5e8d4;strokeColor=#82b366;" vertex="1" parent="1">
          <mxGeometry x="425" y="90" width="50" height="20" as="geometry" />
        </mxCell>
        <mxCell id="pKV5qZKyXIUP5hxfFtXQ-31" value="" style="endArrow=classic;html=1;rounded=0;exitX=0.5;exitY=1;exitDx=0;exitDy=0;" edge="1" parent="1" source="pKV5qZKyXIUP5hxfFtXQ-10" target="pKV5qZKyXIUP5hxfFtXQ-32">
          <mxGeometry width="50" height="50" relative="1" as="geometry">
            <mxPoint x="400" y="420" as="sourcePoint" />
            <mxPoint x="300" y="310" as="targetPoint" />
          </mxGeometry>
        </mxCell>
        <mxCell id="pKV5qZKyXIUP5hxfFtXQ-32" value="1,0,0" style="rounded=0;whiteSpace=wrap;html=1;fillColor=#f8cecc;strokeColor=#b85450;" vertex="1" parent="1">
          <mxGeometry x="490" y="90" width="50" height="20" as="geometry" />
        </mxCell>
        <mxCell id="pKV5qZKyXIUP5hxfFtXQ-33" value="" style="endArrow=classic;html=1;rounded=0;exitX=0.5;exitY=1;exitDx=0;exitDy=0;" edge="1" parent="1" source="pKV5qZKyXIUP5hxfFtXQ-32" target="pKV5qZKyXIUP5hxfFtXQ-34">
          <mxGeometry width="50" height="50" relative="1" as="geometry">
            <mxPoint x="400" y="420" as="sourcePoint" />
            <mxPoint x="310" y="410" as="targetPoint" />
          </mxGeometry>
        </mxCell>
        <mxCell id="pKV5qZKyXIUP5hxfFtXQ-34" value="0,0,0" style="rounded=0;whiteSpace=wrap;html=1;fillColor=#d5e8d4;strokeColor=#82b366;" vertex="1" parent="1">
          <mxGeometry x="490" y="120" width="50" height="20" as="geometry" />
        </mxCell>
        <mxCell id="pKV5qZKyXIUP5hxfFtXQ-40" value="" style="endArrow=classic;html=1;rounded=0;exitX=0.25;exitY=1;exitDx=0;exitDy=0;" edge="1" parent="1" source="pKV5qZKyXIUP5hxfFtXQ-18" target="pKV5qZKyXIUP5hxfFtXQ-41">
          <mxGeometry width="50" height="50" relative="1" as="geometry">
            <mxPoint x="400" y="420" as="sourcePoint" />
            <mxPoint x="460" y="290" as="targetPoint" />
          </mxGeometry>
        </mxCell>
        <mxCell id="pKV5qZKyXIUP5hxfFtXQ-41" value="0,0,0" style="rounded=0;whiteSpace=wrap;html=1;fillColor=#d5e8d4;strokeColor=#82b366;" vertex="1" parent="1">
          <mxGeometry x="550" y="180" width="40" height="20" as="geometry" />
        </mxCell>
        <mxCell id="pKV5qZKyXIUP5hxfFtXQ-46" value="" style="endArrow=classic;html=1;rounded=0;exitX=0.5;exitY=1;exitDx=0;exitDy=0;entryX=0.25;entryY=0;entryDx=0;entryDy=0;" edge="1" parent="1" source="pKV5qZKyXIUP5hxfFtXQ-4" target="pKV5qZKyXIUP5hxfFtXQ-51">
          <mxGeometry width="50" height="50" relative="1" as="geometry">
            <mxPoint x="400" y="420" as="sourcePoint" />
            <mxPoint x="322.6470588235295" y="300" as="targetPoint" />
          </mxGeometry>
        </mxCell>
        <mxCell id="pKV5qZKyXIUP5hxfFtXQ-47" value="" style="endArrow=classic;html=1;rounded=0;exitX=0;exitY=1;exitDx=0;exitDy=0;entryX=0.5;entryY=0;entryDx=0;entryDy=0;" edge="1" parent="1" source="pKV5qZKyXIUP5hxfFtXQ-4" target="pKV5qZKyXIUP5hxfFtXQ-58">
          <mxGeometry width="50" height="50" relative="1" as="geometry">
            <mxPoint x="400" y="420" as="sourcePoint" />
            <mxPoint x="121.25" y="290" as="targetPoint" />
          </mxGeometry>
        </mxCell>
        <mxCell id="pKV5qZKyXIUP5hxfFtXQ-50" value="0,0,0" style="rounded=0;whiteSpace=wrap;html=1;fillColor=#d5e8d4;strokeColor=#82b366;" vertex="1" parent="1">
          <mxGeometry x="270" y="80" width="55" height="20" as="geometry" />
        </mxCell>
        <mxCell id="pKV5qZKyXIUP5hxfFtXQ-51" value="1,1,0" style="rounded=0;whiteSpace=wrap;html=1;fillColor=#d5e8d4;strokeColor=#82b366;" vertex="1" parent="1">
          <mxGeometry x="180" y="80" width="60" height="20" as="geometry" />
        </mxCell>
        <mxCell id="pKV5qZKyXIUP5hxfFtXQ-52" value="" style="endArrow=classic;html=1;rounded=0;exitX=0.25;exitY=1;exitDx=0;exitDy=0;fillColor=#fff2cc;strokeColor=#d6b656;" edge="1" parent="1" source="pKV5qZKyXIUP5hxfFtXQ-51" target="pKV5qZKyXIUP5hxfFtXQ-53">
          <mxGeometry width="50" height="50" relative="1" as="geometry">
            <mxPoint x="70" y="620" as="sourcePoint" />
            <mxPoint x="120" y="570" as="targetPoint" />
          </mxGeometry>
        </mxCell>
        <mxCell id="pKV5qZKyXIUP5hxfFtXQ-53" value="1,0,0" style="rounded=0;whiteSpace=wrap;html=1;fillColor=#f8cecc;strokeColor=#b85450;" vertex="1" parent="1">
          <mxGeometry x="175" y="120" width="40" height="20" as="geometry" />
        </mxCell>
        <mxCell id="pKV5qZKyXIUP5hxfFtXQ-54" value="" style="endArrow=classic;html=1;rounded=0;exitX=0.75;exitY=1;exitDx=0;exitDy=0;" edge="1" parent="1" source="pKV5qZKyXIUP5hxfFtXQ-51" target="pKV5qZKyXIUP5hxfFtXQ-55">
          <mxGeometry width="50" height="50" relative="1" as="geometry">
            <mxPoint x="70" y="620" as="sourcePoint" />
            <mxPoint x="230" y="560" as="targetPoint" />
          </mxGeometry>
        </mxCell>
        <mxCell id="pKV5qZKyXIUP5hxfFtXQ-55" value="0,0,0" style="rounded=0;whiteSpace=wrap;html=1;fillColor=#d5e8d4;strokeColor=#82b366;" vertex="1" parent="1">
          <mxGeometry x="230" y="120" width="50" height="20" as="geometry" />
        </mxCell>
        <mxCell id="pKV5qZKyXIUP5hxfFtXQ-56" value="" style="endArrow=classic;html=1;rounded=0;exitX=0.25;exitY=1;exitDx=0;exitDy=0;" edge="1" parent="1" source="pKV5qZKyXIUP5hxfFtXQ-53" target="pKV5qZKyXIUP5hxfFtXQ-57">
          <mxGeometry width="50" height="50" relative="1" as="geometry">
            <mxPoint x="70" y="620" as="sourcePoint" />
            <mxPoint x="130" y="490" as="targetPoint" />
          </mxGeometry>
        </mxCell>
        <mxCell id="pKV5qZKyXIUP5hxfFtXQ-57" value="0,0,0" style="rounded=0;whiteSpace=wrap;html=1;fillColor=#d5e8d4;strokeColor=#82b366;" vertex="1" parent="1">
          <mxGeometry x="170" y="180" width="40" height="20" as="geometry" />
        </mxCell>
        <mxCell id="pKV5qZKyXIUP5hxfFtXQ-58" value="2,0,0" style="rounded=0;whiteSpace=wrap;html=1;fillColor=#d5e8d4;strokeColor=#82b366;" vertex="1" parent="1">
          <mxGeometry x="100" y="80" width="50" height="20" as="geometry" />
        </mxCell>
        <mxCell id="pKV5qZKyXIUP5hxfFtXQ-59" value="" style="endArrow=classic;html=1;rounded=0;exitX=0.25;exitY=1;exitDx=0;exitDy=0;" edge="1" parent="1" source="pKV5qZKyXIUP5hxfFtXQ-58" target="pKV5qZKyXIUP5hxfFtXQ-60">
          <mxGeometry width="50" height="50" relative="1" as="geometry">
            <mxPoint x="-70" y="374" as="sourcePoint" />
            <mxPoint x="80" y="590" as="targetPoint" />
          </mxGeometry>
        </mxCell>
        <mxCell id="pKV5qZKyXIUP5hxfFtXQ-60" value="0,0,0" style="rounded=0;whiteSpace=wrap;html=1;fillColor=#d5e8d4;strokeColor=#82b366;" vertex="1" parent="1">
          <mxGeometry x="30" y="120" width="50" height="20" as="geometry" />
        </mxCell>
        <mxCell id="pKV5qZKyXIUP5hxfFtXQ-61" value="" style="endArrow=classic;html=1;rounded=0;fillColor=#fff2cc;strokeColor=#d6b656;" edge="1" parent="1" source="pKV5qZKyXIUP5hxfFtXQ-58" target="pKV5qZKyXIUP5hxfFtXQ-62">
          <mxGeometry width="50" height="50" relative="1" as="geometry">
            <mxPoint x="30" y="640" as="sourcePoint" />
            <mxPoint x="-70" y="530" as="targetPoint" />
          </mxGeometry>
        </mxCell>
        <mxCell id="pKV5qZKyXIUP5hxfFtXQ-62" value="1,0,0" style="rounded=0;whiteSpace=wrap;html=1;fillColor=#f8cecc;strokeColor=#b85450;" vertex="1" parent="1">
          <mxGeometry x="110" y="120" width="50" height="20" as="geometry" />
        </mxCell>
        <mxCell id="pKV5qZKyXIUP5hxfFtXQ-63" value="" style="endArrow=classic;html=1;rounded=0;exitX=0.5;exitY=1;exitDx=0;exitDy=0;" edge="1" parent="1" source="pKV5qZKyXIUP5hxfFtXQ-62" target="pKV5qZKyXIUP5hxfFtXQ-64">
          <mxGeometry width="50" height="50" relative="1" as="geometry">
            <mxPoint x="30" y="640" as="sourcePoint" />
            <mxPoint x="-60" y="630" as="targetPoint" />
          </mxGeometry>
        </mxCell>
        <mxCell id="pKV5qZKyXIUP5hxfFtXQ-64" value="0,0,0" style="rounded=0;whiteSpace=wrap;html=1;fillColor=#d5e8d4;strokeColor=#82b366;" vertex="1" parent="1">
          <mxGeometry x="110" y="180" width="50" height="20" as="geometry" />
        </mxCell>
        <mxCell id="pKV5qZKyXIUP5hxfFtXQ-70" value="" style="endArrow=classic;html=1;rounded=0;exitX=1;exitY=1;exitDx=0;exitDy=0;entryX=0;entryY=0;entryDx=0;entryDy=0;" edge="1" parent="1" source="pKV5qZKyXIUP5hxfFtXQ-4" target="pKV5qZKyXIUP5hxfFtXQ-50">
          <mxGeometry width="50" height="50" relative="1" as="geometry">
            <mxPoint x="340" y="350" as="sourcePoint" />
            <mxPoint x="390" y="300" as="targetPoint" />
          </mxGeometry>
        </mxCell>
      </root>
    </mxGraphModel>
  </diagram>
</mxfile>
